<svg width="100%" height="100%" viewBox="0 0 612 103" version="1.1" xmlns="http://www.w3.org/2000/svg" xmlns:xlink="http://www.w3.org/1999/xlink" xml:space="preserve" xmlns:serif="http://www.serif.com/" style="fill-rule:evenodd;clip-rule:evenodd;stroke-linejoin:round;stroke-miterlimit:2;">
                    <g transform="matrix(0.537776,0,-0.418319,0.620184,120.331,-59.0277)">
                        <path d="M53.315,168.426L145.582,168.426L99.41,260.769L99.334,260.616L7.068,260.616L53.239,168.274L53.315,168.426Z" style="fill:rgb(78,78,78);"/>
                    </g>
                    <g transform="matrix(0.537776,0,-0.418319,0.620184,105.22,-104.36)">
                        <path d="M53.315,168.426L145.582,168.426L99.41,260.769L99.334,260.616L7.068,260.616L53.239,168.274L53.315,168.426Z" style="fill:rgb(162,162,162);"/>
                    </g>
                    <g transform="matrix(1,0,0,1,-91.3127,-210.559)">
                        <path d="M409.841,268.699C405.737,268.699 402.534,267.207 400.233,264.224C397.933,261.242 396.783,257.104 396.783,251.812C396.783,250.224 396.915,248.396 397.18,246.327L401.102,217.604L406.068,217.604L402.095,246.255C401.864,247.89 401.748,249.478 401.748,251.018C401.748,254.722 402.476,257.525 403.933,259.425C405.389,261.326 407.507,262.276 410.288,262.276C413.4,262.276 415.89,260.977 417.761,258.379C419.631,255.781 420.947,251.715 421.708,246.183L425.63,217.604L430.496,217.604L426.524,246.688C425.498,254.001 423.586,259.497 420.789,263.178C417.992,266.859 414.343,268.699 409.841,268.699ZM567.586,268.699C564.176,268.699 561.247,267.809 558.797,266.029C556.348,264.249 554.477,261.759 553.187,258.559C551.896,255.36 551.25,251.643 551.25,247.409C551.25,241.78 552.127,236.656 553.882,232.038C555.636,227.419 558.11,223.762 561.305,221.068C564.499,218.374 568.181,217.027 572.352,217.027C575.762,217.027 578.699,217.917 581.165,219.697C583.631,221.477 585.51,223.967 586.801,227.166C588.092,230.366 588.737,234.082 588.737,238.316C588.737,243.945 587.86,249.069 586.106,253.688C584.351,258.307 581.869,261.963 578.658,264.657C575.447,267.352 571.756,268.699 567.586,268.699ZM478.46,268.699C475.051,268.699 472.121,267.809 469.672,266.029C467.222,264.249 465.352,261.759 464.061,258.559C462.77,255.36 462.125,251.643 462.125,247.409C462.125,241.78 463.002,236.656 464.756,232.038C466.511,227.419 468.985,223.762 472.179,221.068C475.374,218.374 479.056,217.027 483.227,217.027C486.636,217.027 489.574,217.917 492.04,219.697C494.506,221.477 496.385,223.967 497.676,227.166C498.967,230.366 499.612,234.082 499.612,238.316C499.612,243.945 498.735,249.069 496.98,253.688C495.226,258.307 492.743,261.963 489.533,264.657C486.322,267.352 482.631,268.699 478.46,268.699ZM262.673,255.492L244.103,255.492L238.591,268.122L233.229,268.122L255.97,217.604L260.885,217.604L269.673,268.122L264.758,268.122L262.673,255.492ZM628.161,217.604L633.126,217.604L626.175,268.122L621.21,268.122L628.161,217.604ZM446.037,223.883L434.171,223.883L435.015,217.604L463.763,217.604L462.869,223.883L451.003,223.883L444.895,268.122L439.98,268.122L446.037,223.883ZM681.885,223.883L679.749,239.399L697.227,239.399L696.383,245.533L678.905,245.533L676.671,261.843L696.979,261.843L696.135,268.122L670.862,268.122L677.813,217.604L702.341,217.604L701.497,223.883L681.885,223.883ZM299.812,268.122L289.236,245.461L281.59,254.987L279.803,268.122L274.837,268.122L281.789,217.604L286.754,217.604L282.931,245.533L305.175,217.604L311.629,217.604L292.911,241.059L292.811,241.203L304.615,266.497L326.624,217.604L331.54,217.604L340.328,268.122L335.413,268.122L333.327,255.492L314.758,255.492L309.246,268.122L299.812,268.122ZM383.029,255.492L364.459,255.492L358.948,268.122L353.585,268.122L376.326,217.604L381.242,217.604L390.03,268.122L385.114,268.122L383.029,255.492ZM547.377,217.604L540.426,268.122L535.659,268.122L540.724,231.605L524.289,261.987L522.005,261.987L513.316,230.883L508.202,268.122L503.435,268.122L510.386,217.604L514.408,217.604L524.09,253.183L543.107,217.604L547.377,217.604ZM605.023,223.883L593.156,223.883L594,217.604L622.749,217.604L621.855,223.883L609.988,223.883L603.881,268.122L598.966,268.122L605.023,223.883ZM673.394,217.604L651.15,268.122L646.284,268.122L637.942,217.604L643.057,217.604L649.809,259.173L668.23,217.604L673.394,217.604ZM568.032,262.276C571.144,262.276 573.891,261.217 576.275,259.101C578.658,256.984 580.495,254.133 581.786,250.549C583.077,246.964 583.722,243.031 583.722,238.749C583.722,234.082 582.705,230.366 580.669,227.599C578.633,224.833 575.729,223.45 571.955,223.45C568.843,223.45 566.096,224.508 563.713,226.625C561.329,228.742 559.484,231.605 558.177,235.213C556.869,238.821 556.215,242.742 556.215,246.976C556.215,251.643 557.241,255.36 559.294,258.126C561.346,260.893 564.259,262.276 568.032,262.276ZM478.907,262.276C482.019,262.276 484.766,261.217 487.149,259.101C489.533,256.984 491.37,254.133 492.661,250.549C493.952,246.964 494.597,243.031 494.597,238.749C494.597,234.082 493.579,230.366 491.544,227.599C489.508,224.833 486.603,223.45 482.83,223.45C479.718,223.45 476.971,224.508 474.587,226.625C472.204,228.742 470.359,231.605 469.051,235.213C467.744,238.821 467.09,242.742 467.09,246.976C467.09,251.643 468.116,255.36 470.168,258.126C472.221,260.893 475.134,262.276 478.907,262.276ZM261.68,249.719L257.558,224.821L246.635,249.719L261.68,249.719ZM332.334,249.719L328.213,224.821L317.29,249.719L332.334,249.719ZM382.036,249.719L377.915,224.821L366.991,249.719L382.036,249.719Z" style="fill:gray;fill-rule:nonzero;"/>
                    </g>
                    <g transform="matrix(1,0,0,1,-91.3127,-210.559)">
                        <path d="M347.549,304.343C346.046,304.343 344.607,304.099 343.231,303.611C341.856,303.123 340.817,302.499 340.114,301.738L341.168,300.04C341.851,300.781 342.797,301.377 344.007,301.825C345.217,302.274 346.466,302.499 347.754,302.499C349.569,302.499 351.027,302.143 352.13,301.43C353.232,300.718 353.783,299.728 353.783,298.459C353.783,297.776 353.579,297.22 353.169,296.791C352.759,296.362 352.242,296.015 351.617,295.752C350.993,295.488 350.144,295.201 349.071,294.888C347.803,294.518 346.773,294.161 345.983,293.82C345.193,293.478 344.519,292.971 343.963,292.298C343.407,291.625 343.129,290.751 343.129,289.678C343.129,288.41 343.475,287.312 344.168,286.385C344.861,285.458 345.827,284.746 347.066,284.249C348.305,283.751 349.725,283.502 351.325,283.502C352.554,283.502 353.725,283.653 354.837,283.956C355.949,284.258 356.896,284.692 357.676,285.258L356.769,287.015C356.028,286.468 355.179,286.054 354.223,285.771C353.266,285.488 352.261,285.346 351.208,285.346C349.412,285.346 347.968,285.717 346.876,286.458C345.783,287.2 345.237,288.205 345.237,289.473C345.237,290.176 345.451,290.751 345.88,291.2C346.31,291.649 346.842,292.005 347.476,292.269C348.11,292.532 348.964,292.82 350.037,293.132C351.305,293.503 352.33,293.859 353.11,294.2C353.891,294.542 354.554,295.03 355.101,295.664C355.647,296.298 355.92,297.132 355.92,298.167C355.92,299.455 355.564,300.562 354.852,301.489C354.14,302.416 353.154,303.123 351.896,303.611C350.637,304.099 349.188,304.343 347.549,304.343ZM395.377,304.343C393.874,304.343 392.435,304.099 391.059,303.611C389.684,303.123 388.645,302.499 387.942,301.738L388.996,300.04C389.679,300.781 390.625,301.377 391.835,301.825C393.045,302.274 394.294,302.499 395.582,302.499C397.396,302.499 398.855,302.143 399.958,301.43C401.06,300.718 401.611,299.728 401.611,298.459C401.611,297.776 401.406,297.22 400.997,296.791C400.587,296.362 400.07,296.015 399.445,295.752C398.821,295.488 397.972,295.201 396.899,294.888C395.63,294.518 394.601,294.161 393.811,293.82C393.02,293.478 392.347,292.971 391.791,292.298C391.235,291.625 390.957,290.751 390.957,289.678C390.957,288.41 391.303,287.312 391.996,286.385C392.689,285.458 393.655,284.746 394.894,284.249C396.133,283.751 397.553,283.502 399.153,283.502C400.382,283.502 401.553,283.653 402.665,283.956C403.777,284.258 404.724,284.692 405.504,285.258L404.597,287.015C403.855,286.468 403.007,286.054 402.05,285.771C401.094,285.488 400.089,285.346 399.036,285.346C397.24,285.346 395.796,285.717 394.704,286.458C393.611,287.2 393.064,288.205 393.064,289.473C393.064,290.176 393.279,290.751 393.708,291.2C394.138,291.649 394.669,292.005 395.304,292.269C395.938,292.532 396.791,292.82 397.865,293.132C399.133,293.503 400.158,293.859 400.938,294.2C401.719,294.542 402.382,295.03 402.929,295.664C403.475,296.298 403.748,297.132 403.748,298.167C403.748,299.455 403.392,300.562 402.68,301.489C401.967,302.416 400.982,303.123 399.723,303.611C398.465,304.099 397.016,304.343 395.377,304.343ZM327.147,304.343C324.806,304.343 322.986,303.757 321.688,302.586C320.391,301.416 319.742,299.786 319.742,297.698C319.742,296.898 319.82,296.137 319.976,295.415L322.318,283.678L324.455,283.678L322.113,295.357C321.957,296.176 321.879,296.869 321.879,297.435C321.879,299.074 322.347,300.313 323.284,301.152C324.22,301.991 325.567,302.411 327.323,302.411C329.333,302.411 330.938,301.84 332.138,300.699C333.338,299.557 334.182,297.776 334.67,295.357L337.012,283.678L339.119,283.678L336.777,295.503C335.587,301.396 332.377,304.343 327.147,304.343ZM546.295,283.678L542.197,304.167L540.441,304.167L530.635,287.19L527.24,304.167L525.103,304.167L529.201,283.678L530.957,283.678L540.763,300.655L544.158,283.678L546.295,283.678ZM240.273,285.551L238.809,292.839L249.434,292.839L249.083,294.683L238.458,294.683L236.936,302.294L249.259,302.294L248.878,304.167L234.419,304.167L238.517,283.678L252.566,283.678L252.186,285.551L240.273,285.551ZM363.677,283.678L365.814,283.678L361.716,304.167L359.579,304.167L363.677,283.678ZM481.022,283.678L483.159,283.678L479.061,304.167L476.924,304.167L481.022,283.678ZM285.496,285.551L278.266,285.551L278.646,283.678L295.243,283.678L294.833,285.551L287.632,285.551L283.915,304.167L281.778,304.167L285.496,285.551ZM414.812,285.551L407.583,285.551L407.963,283.678L424.559,283.678L424.15,285.551L416.949,285.551L413.232,304.167L411.095,304.167L414.812,285.551ZM511.375,285.551L509.912,292.839L520.537,292.839L520.186,294.683L509.561,294.683L508.039,302.294L520.361,302.294L519.981,304.167L505.521,304.167L509.619,283.678L523.669,283.678L523.288,285.551L511.375,285.551ZM474.553,289.473C474.553,291.561 474.002,293.274 472.899,294.61C471.797,295.947 470.25,296.849 468.26,297.318L472.124,304.167L469.782,304.167L466.094,297.64C465.879,297.659 465.528,297.669 465.04,297.669L459.216,297.669L457.928,304.167L455.762,304.167L459.859,283.678L467.236,283.678C469.558,283.678 471.358,284.185 472.636,285.2C473.914,286.215 474.553,287.639 474.553,289.473ZM275.192,283.678L271.095,304.167L269.338,304.167L259.533,287.19L256.137,304.167L254.001,304.167L258.098,283.678L259.855,283.678L269.66,300.655L273.056,283.678L275.192,283.678ZM435.682,283.678L443.468,283.678C445.497,283.678 447.239,284.019 448.693,284.702C450.147,285.385 451.249,286.356 452,287.615C452.752,288.873 453.127,290.342 453.127,292.02C453.127,294.4 452.6,296.508 451.547,298.342C450.493,300.177 449.005,301.606 447.083,302.63C445.161,303.655 442.931,304.167 440.395,304.167L431.584,304.167L435.682,283.678ZM506.634,283.678L493.462,304.167L491.354,304.167L486.349,283.678L488.574,283.678L492.877,301.445L504.351,283.678L506.634,283.678ZM382.468,298.693L371.024,298.693L367.482,304.167L365.14,304.167L378.605,283.678L380.742,283.678L386.01,304.167L383.844,304.167L382.468,298.693ZM315.79,283.678L311.693,304.167L309.556,304.167L311.429,294.742L298.609,294.742L296.735,304.167L294.599,304.167L298.697,283.678L300.833,283.678L299.019,292.781L311.839,292.781L313.654,283.678L315.79,283.678ZM440.453,302.294C442.58,302.294 444.439,301.86 446.029,300.991C447.62,300.123 448.839,298.918 449.688,297.376C450.537,295.835 450.961,294.079 450.961,292.108C450.961,290.078 450.308,288.478 449,287.307C447.693,286.136 445.771,285.551 443.234,285.551L437.438,285.551L434.102,302.294L440.453,302.294ZM382.059,296.937L379.278,285.873L372.136,296.937L382.059,296.937ZM465.099,295.796C467.441,295.796 469.241,295.279 470.499,294.244C471.758,293.21 472.387,291.688 472.387,289.678C472.387,288.332 471.929,287.307 471.012,286.605C470.094,285.902 468.787,285.551 467.089,285.551L461.645,285.551L459.567,295.796L465.099,295.796Z" style="fill:gray;fill-rule:nonzero;"/>
                    </g>
                        </svg> 
